<svg xmlns="http://www.w3.org/2000/svg" viewBox="0 0 403.43 83.97"><defs><style>.cls-1{fill:#fff;}.cls-2{fill:#93dbd4;}</style></defs><title>2</title><g id="Layer_2" data-name="Layer 2"><g id="Layer_2-2" data-name="Layer 2"><path class="cls-1" d="M352.92,36A6.31,6.31,0,0,1,354,32.62a8.18,8.18,0,0,1,3.13-2.84,9.83,9.83,0,0,1,4.79-1.12,10.2,10.2,0,0,1,4.5.94,7.25,7.25,0,0,1,3,2.55,6.27,6.27,0,0,1,1.06,3.52,5.48,5.48,0,0,1-.6,2.62,8,8,0,0,1-1.45,1.94c-.55.55-1.55,1.46-3,2.75a10.78,10.78,0,0,0-1,1,4.19,4.19,0,0,0-.54.76,4.37,4.37,0,0,0-.27.68c-.06.23-.16.63-.29,1.21a2,2,0,0,1-2.09,1.82,2.18,2.18,0,0,1-1.54-.59,2.38,2.38,0,0,1-.62-1.78,6.66,6.66,0,0,1,.45-2.56,6.58,6.58,0,0,1,1.22-1.9,27.24,27.24,0,0,1,2-1.94c.75-.65,1.29-1.15,1.62-1.48a5.1,5.1,0,0,0,.85-1.12,2.81,2.81,0,0,0,.34-1.34,3.11,3.11,0,0,0-1.05-2.37,3.82,3.82,0,0,0-2.7-1,3.73,3.73,0,0,0-2.84,1,7.77,7.77,0,0,0-1.55,2.87c-.4,1.33-1.15,2-2.27,2a2.24,2.24,0,0,1-1.66-.69A2.16,2.16,0,0,1,352.92,36Zm8.58,19.27a2.73,2.73,0,0,1-1.87-.7,2.44,2.44,0,0,1-.8-1.94,2.5,2.5,0,0,1,.77-1.86,2.6,2.6,0,0,1,1.9-.76,2.58,2.58,0,0,1,2.62,2.62,2.46,2.46,0,0,1-.79,1.94A2.72,2.72,0,0,1,361.5,55.27Z"/><path class="cls-1" d="M81.92,84H1.5A1.5,1.5,0,0,1,0,82.47V2.05A1.5,1.5,0,0,1,1.5.55H81.92a1.5,1.5,0,0,1,1.5,1.5V82.47A1.5,1.5,0,0,1,81.92,84ZM3,81H80.42V3.55H3Z"/><path class="cls-1" d="M188.43,84H108a1.5,1.5,0,0,1-1.5-1.5V2.05A1.5,1.5,0,0,1,108,.55h80.42a1.5,1.5,0,0,1,1.5,1.5V82.47A1.5,1.5,0,0,1,188.43,84Zm-78.92-3h77.42V3.55H109.51Z"/><path class="cls-1" d="M294.94,84H214.52a1.5,1.5,0,0,1-1.5-1.5V2.05a1.5,1.5,0,0,1,1.5-1.5h80.42a1.5,1.5,0,0,1,1.5,1.5V82.47A1.5,1.5,0,0,1,294.94,84ZM216,81h77.42V3.55H216Z"/><path class="cls-1" d="M352.92,36A6.31,6.31,0,0,1,354,32.62a8.18,8.18,0,0,1,3.13-2.84,9.83,9.83,0,0,1,4.79-1.12,10.2,10.2,0,0,1,4.5.94,7.25,7.25,0,0,1,3,2.55,6.27,6.27,0,0,1,1.06,3.52,5.48,5.48,0,0,1-.6,2.62,8,8,0,0,1-1.45,1.94c-.55.55-1.55,1.46-3,2.75a10.78,10.78,0,0,0-1,1,4.19,4.19,0,0,0-.54.76,4.37,4.37,0,0,0-.27.68c-.06.23-.16.63-.29,1.21a2,2,0,0,1-2.09,1.82,2.18,2.18,0,0,1-1.54-.59,2.38,2.38,0,0,1-.62-1.78,6.66,6.66,0,0,1,.45-2.56,6.58,6.58,0,0,1,1.22-1.9,27.24,27.24,0,0,1,2-1.94c.75-.65,1.29-1.15,1.62-1.48a5.1,5.1,0,0,0,.85-1.12,2.81,2.81,0,0,0,.34-1.34,3.11,3.11,0,0,0-1.05-2.37,3.82,3.82,0,0,0-2.7-1,3.73,3.73,0,0,0-2.84,1,7.77,7.77,0,0,0-1.55,2.87c-.4,1.33-1.15,2-2.27,2a2.24,2.24,0,0,1-1.66-.69A2.16,2.16,0,0,1,352.92,36Zm8.58,19.27a2.73,2.73,0,0,1-1.87-.7,2.44,2.44,0,0,1-.8-1.94,2.5,2.5,0,0,1,.77-1.86,2.6,2.6,0,0,1,1.9-.76,2.58,2.58,0,0,1,2.62,2.62,2.46,2.46,0,0,1-.79,1.94A2.72,2.72,0,0,1,361.5,55.27Z"/><path class="cls-1" d="M81.92,84H1.5A1.5,1.5,0,0,1,0,82.47V2.05A1.5,1.5,0,0,1,1.5.55H81.92a1.5,1.5,0,0,1,1.5,1.5V82.47A1.5,1.5,0,0,1,81.92,84ZM3,81H80.42V3.55H3Z"/><path class="cls-1" d="M188.43,84H108a1.5,1.5,0,0,1-1.5-1.5V2.05A1.5,1.5,0,0,1,108,.55h80.42a1.5,1.5,0,0,1,1.5,1.5V82.47A1.5,1.5,0,0,1,188.43,84Zm-78.92-3h77.42V3.55H109.51Z"/><path class="cls-1" d="M294.94,84H214.52a1.5,1.5,0,0,1-1.5-1.5V2.05a1.5,1.5,0,0,1,1.5-1.5h80.42a1.5,1.5,0,0,1,1.5,1.5V82.47A1.5,1.5,0,0,1,294.94,84ZM216,81h77.42V3.55H216Z"/><path class="cls-1" d="M401.93,83.42h-6a1.5,1.5,0,0,1,0-3h4.5v-4.5a1.5,1.5,0,0,1,3,0v6A1.5,1.5,0,0,1,401.93,83.42Z"/><path class="cls-1" d="M386.92,83.42h-10.8a1.5,1.5,0,0,1,0-3h10.8a1.5,1.5,0,0,1,0,3Zm-19.8,0H356.31a1.5,1.5,0,0,1,0-3h10.81a1.5,1.5,0,0,1,0,3Zm-19.81,0h-10.8a1.5,1.5,0,0,1,0-3h10.8a1.5,1.5,0,0,1,0,3Z"/><path class="cls-1" d="M327.5,83.42h-6a1.5,1.5,0,0,1-1.5-1.5v-6a1.5,1.5,0,0,1,3,0v4.5h4.5a1.5,1.5,0,0,1,0,3Z"/><path class="cls-1" d="M321.5,68.42a1.5,1.5,0,0,1-1.5-1.5V56.12a1.5,1.5,0,0,1,3,0v10.8A1.5,1.5,0,0,1,321.5,68.42Zm0-19.81a1.5,1.5,0,0,1-1.5-1.5V36.31a1.5,1.5,0,0,1,3,0v10.8A1.5,1.5,0,0,1,321.5,48.61Zm0-19.8a1.5,1.5,0,0,1-1.5-1.5V16.5a1.5,1.5,0,0,1,3,0V27.31A1.5,1.5,0,0,1,321.5,28.81Z"/><path class="cls-1" d="M321.5,9A1.5,1.5,0,0,1,320,7.5v-6A1.5,1.5,0,0,1,321.5,0h6a1.5,1.5,0,0,1,0,3H323V7.5A1.5,1.5,0,0,1,321.5,9Z"/><path class="cls-1" d="M386.92,3h-10.8a1.5,1.5,0,0,1,0-3h10.8a1.5,1.5,0,0,1,0,3Zm-19.8,0H356.31a1.5,1.5,0,0,1,0-3h10.81a1.5,1.5,0,0,1,0,3ZM347.31,3h-10.8a1.5,1.5,0,0,1,0-3h10.8a1.5,1.5,0,0,1,0,3Z"/><path class="cls-1" d="M401.93,9a1.5,1.5,0,0,1-1.5-1.5V3h-4.5a1.5,1.5,0,0,1,0-3h6a1.5,1.5,0,0,1,1.5,1.5v6A1.5,1.5,0,0,1,401.93,9Z"/><path class="cls-1" d="M401.93,68.42a1.5,1.5,0,0,1-1.5-1.5V56.12a1.5,1.5,0,0,1,3,0v10.8A1.5,1.5,0,0,1,401.93,68.42Zm0-19.81a1.5,1.5,0,0,1-1.5-1.5V36.31a1.5,1.5,0,0,1,3,0v10.8A1.5,1.5,0,0,1,401.93,48.61Zm0-19.8a1.5,1.5,0,0,1-1.5-1.5V16.5a1.5,1.5,0,0,1,3,0V27.31A1.5,1.5,0,0,1,401.93,28.81Z"/><path class="cls-1" d="M401.93,83.92h-6a1.5,1.5,0,0,1,0-3h4.5v-4.5a1.5,1.5,0,0,1,3,0v6A1.5,1.5,0,0,1,401.93,83.92Z"/><path class="cls-1" d="M386.92,83.92h-10.8a1.5,1.5,0,0,1,0-3h10.8a1.5,1.5,0,0,1,0,3Zm-19.8,0H356.31a1.5,1.5,0,0,1,0-3h10.81a1.5,1.5,0,0,1,0,3Zm-19.81,0h-10.8a1.5,1.5,0,0,1,0-3h10.8a1.5,1.5,0,0,1,0,3Z"/><path class="cls-1" d="M327.5,83.92h-6a1.5,1.5,0,0,1-1.5-1.5v-6a1.5,1.5,0,0,1,3,0v4.5h4.5a1.5,1.5,0,0,1,0,3Z"/><path class="cls-1" d="M321.5,68.92a1.5,1.5,0,0,1-1.5-1.5V56.62a1.5,1.5,0,0,1,3,0v10.8A1.5,1.5,0,0,1,321.5,68.92Zm0-19.81a1.5,1.5,0,0,1-1.5-1.5V36.81a1.5,1.5,0,0,1,3,0v10.8A1.5,1.5,0,0,1,321.5,49.11Zm0-19.8a1.5,1.5,0,0,1-1.5-1.5V17a1.5,1.5,0,0,1,3,0V27.81A1.5,1.5,0,0,1,321.5,29.31Z"/><path class="cls-1" d="M321.5,9.5A1.5,1.5,0,0,1,320,8V2A1.5,1.5,0,0,1,321.5.5h6a1.5,1.5,0,0,1,0,3H323V8A1.5,1.5,0,0,1,321.5,9.5Z"/><path class="cls-1" d="M386.92,3.5h-10.8a1.5,1.5,0,0,1,0-3h10.8a1.5,1.5,0,0,1,0,3Zm-19.8,0H356.31a1.5,1.5,0,0,1,0-3h10.81a1.5,1.5,0,0,1,0,3Zm-19.81,0h-10.8a1.5,1.5,0,0,1,0-3h10.8a1.5,1.5,0,0,1,0,3Z"/><path class="cls-1" d="M401.93,9.5a1.5,1.5,0,0,1-1.5-1.5V3.5h-4.5a1.5,1.5,0,0,1,0-3h6a1.5,1.5,0,0,1,1.5,1.5V8A1.5,1.5,0,0,1,401.93,9.5Z"/><path class="cls-1" d="M401.93,68.92a1.5,1.5,0,0,1-1.5-1.5V56.62a1.5,1.5,0,0,1,3,0v10.8A1.5,1.5,0,0,1,401.93,68.92Zm0-19.81a1.5,1.5,0,0,1-1.5-1.5V36.81a1.5,1.5,0,0,1,3,0v10.8A1.5,1.5,0,0,1,401.93,49.11Zm0-19.8a1.5,1.5,0,0,1-1.5-1.5V17a1.5,1.5,0,0,1,3,0V27.81A1.5,1.5,0,0,1,401.93,29.31Z"/><path class="cls-2" d="M148.22,15.26a27,27,0,1,0,27,27A27,27,0,0,0,148.22,15.26Z"/><circle class="cls-2" cx="41.71" cy="42.26" r="15"/><path class="cls-2" d="M268.73,40.76h-12.5V28.26a1.5,1.5,0,0,0-3,0v12.5h-12.5a1.5,1.5,0,0,0,0,3h12.5v12.5a1.5,1.5,0,1,0,3,0V43.76h12.5a1.5,1.5,0,0,0,0-3Z"/></g></g></svg>