<svg xmlns="http://www.w3.org/2000/svg" viewBox="0 0 83.42 83.42"><defs><style>.cls-1{fill:#fff;}.cls-2{fill:#f5d492;}</style></defs><title>3_4</title><g id="Layer_2" data-name="Layer 2"><g id="Layer_2-2" data-name="Layer 2"><path class="cls-1" d="M83.42,1.5V81.92a1.5,1.5,0,0,1-1.5,1.5H1.5A1.5,1.5,0,0,1,0,81.92V1.5A1.5,1.5,0,0,1,1.5,0H81.92A1.5,1.5,0,0,1,83.42,1.5Zm-3,78.92V3H3V80.42Z"/><path class="cls-2" d="M25,35.71v12a1.5,1.5,0,0,1-1.5,1.5h-12a1.5,1.5,0,0,1-1.5-1.5v-12a1.5,1.5,0,0,1,1.5-1.5h12A1.5,1.5,0,0,1,25,35.71Zm-3,10.5v-9H13v9Z"/></g></g></svg>