<svg xmlns="http://www.w3.org/2000/svg" viewBox="0 0 83.42 83.42"><defs><style>.cls-1{fill:#fff;}.cls-2{fill:#f5d492;}</style></defs><title>3_2</title><g id="Layer_2" data-name="Layer 2"><g id="Layer_2-2" data-name="Layer 2"><path class="cls-1" d="M81.92,83.42H1.5A1.5,1.5,0,0,1,0,81.92V1.5A1.5,1.5,0,0,1,1.5,0H81.92a1.5,1.5,0,0,1,1.5,1.5V81.92A1.5,1.5,0,0,1,81.92,83.42ZM3,80.42H80.42V3H3Z"/><path class="cls-2" d="M58.73,13V25a1.5,1.5,0,0,1-1.5,1.5h-12a1.5,1.5,0,0,1-1.5-1.5V13a1.5,1.5,0,0,1,1.5-1.5h12A1.5,1.5,0,0,1,58.73,13Zm-3,10.5v-9h-9v9Z"/><path class="cls-2" d="M42.18,13V25a1.5,1.5,0,0,1-1.5,1.5h-12a1.5,1.5,0,0,1-1.5-1.5V13a1.5,1.5,0,0,1,1.5-1.5h12A1.5,1.5,0,0,1,42.18,13Zm-3,10.5v-9h-9v9Z"/><path class="cls-2" d="M25.63,13V25a1.5,1.5,0,0,1-1.5,1.5h-12a1.5,1.5,0,0,1-1.5-1.5V13a1.5,1.5,0,0,1,1.5-1.5h12A1.5,1.5,0,0,1,25.63,13Zm-3,10.5v-9h-9v9Z"/></g></g></svg>