<svg xmlns="http://www.w3.org/2000/svg" viewBox="0 0 83.42 83.42"><defs><style>.cls-1{fill:#fff;}.cls-2{fill:#f5d492;}</style></defs><title>4_4</title><g id="Layer_2" data-name="Layer 2"><g id="Layer_2-2" data-name="Layer 2"><path class="cls-1" d="M81.92,83.42H1.5A1.5,1.5,0,0,1,0,81.92V1.5A1.5,1.5,0,0,1,1.5,0H81.92a1.5,1.5,0,0,1,1.5,1.5V81.92A1.5,1.5,0,0,1,81.92,83.42ZM3,80.42H80.42V3H3Z"/><path class="cls-2" d="M33.81,62.21a21.18,21.18,0,0,1-2.36-.15A2.61,2.61,0,0,1,29.17,60a2.69,2.69,0,0,1-.06-.54,2.6,2.6,0,0,1,1.32-2.27,17.89,17.89,0,0,0,0-30.94,2.62,2.62,0,0,1-1.26-2.81,2.66,2.66,0,0,1,2.27-2.08,22.07,22.07,0,0,1,2.37-.14,20.5,20.5,0,0,1,0,41Zm-.93-3,.93,0a17.5,17.5,0,0,0,0-35l-.92,0a20.88,20.88,0,0,1,0,34.94Zm-1.11-.1h0Zm.16-35.44Z"/></g></g></svg>