<svg xmlns="http://www.w3.org/2000/svg" viewBox="0 0 83.42 83.42"><defs><style>.cls-1{fill:#fff;}.cls-2{fill:#f5d492;}</style></defs><title>4_2</title><g id="Layer_2" data-name="Layer 2"><g id="Layer_2-2" data-name="Layer 2"><path class="cls-1" d="M81.92,83.42H1.5A1.5,1.5,0,0,1,0,81.92V1.5A1.5,1.5,0,0,1,1.5,0H81.92a1.5,1.5,0,0,1,1.5,1.5V81.92A1.5,1.5,0,0,1,81.92,83.42ZM3,80.42H80.42V3H3Z"/><path class="cls-2" d="M33.81,22.71a19.24,19.24,0,0,0-2.19.13,1.14,1.14,0,0,0-1,.89,1.12,1.12,0,0,0,.54,1.21,19.39,19.39,0,0,1,0,33.53,1.13,1.13,0,0,0-.57,1,1,1,0,0,0,0,.23,1.12,1.12,0,0,0,1,.89,19.37,19.37,0,0,0,2.19.14,19,19,0,0,0,0-38Z"/></g></g></svg>