<svg xmlns="http://www.w3.org/2000/svg" viewBox="0 0 403.43 83.47"><defs><style>.cls-1{fill:#fff;}.cls-2{fill:#f5d492;}</style></defs><title>5</title><g id="Layer_2" data-name="Layer 2"><g id="Layer_2-2" data-name="Layer 2"><path class="cls-1" d="M352.92,35.75A6.31,6.31,0,0,1,354,32.37a8.18,8.18,0,0,1,3.13-2.84,9.83,9.83,0,0,1,4.79-1.12,10.2,10.2,0,0,1,4.5.94,7.25,7.25,0,0,1,3,2.55,6.27,6.27,0,0,1,1.06,3.52,5.48,5.48,0,0,1-.6,2.62A8,8,0,0,1,368.45,40c-.55.55-1.55,1.46-3,2.75a10.78,10.78,0,0,0-1,1,4.19,4.19,0,0,0-.54.76,4.37,4.37,0,0,0-.27.68c-.06.23-.16.63-.29,1.21a2,2,0,0,1-2.09,1.82,2.18,2.18,0,0,1-1.54-.59,2.38,2.38,0,0,1-.62-1.78,6.66,6.66,0,0,1,.45-2.56,6.58,6.58,0,0,1,1.22-1.9,27.24,27.24,0,0,1,2-1.94c.75-.65,1.29-1.15,1.62-1.48a5.1,5.1,0,0,0,.85-1.12,2.81,2.81,0,0,0,.34-1.34,3.11,3.11,0,0,0-1.05-2.37,3.82,3.82,0,0,0-2.7-1,3.73,3.73,0,0,0-2.84,1A7.77,7.77,0,0,0,357.53,36c-.4,1.33-1.15,2-2.27,2a2.24,2.24,0,0,1-1.66-.69A2.16,2.16,0,0,1,352.92,35.75ZM361.5,55a2.73,2.73,0,0,1-1.87-.7,2.44,2.44,0,0,1-.8-1.94,2.5,2.5,0,0,1,.77-1.86,2.6,2.6,0,0,1,1.9-.76,2.58,2.58,0,0,1,2.62,2.62,2.46,2.46,0,0,1-.79,1.94A2.72,2.72,0,0,1,361.5,55Z"/><path class="cls-1" d="M81.92,83.47H1.5A1.5,1.5,0,0,1,0,82V1.55A1.5,1.5,0,0,1,1.5.05H81.92a1.5,1.5,0,0,1,1.5,1.5V82A1.5,1.5,0,0,1,81.92,83.47ZM3,80.47H80.42V3.05H3Z"/><path class="cls-1" d="M188.43,83.47H108a1.5,1.5,0,0,1-1.5-1.5V1.55A1.5,1.5,0,0,1,108,.05h80.42a1.5,1.5,0,0,1,1.5,1.5V82A1.5,1.5,0,0,1,188.43,83.47Zm-78.92-3h77.42V3.05H109.51Z"/><path class="cls-1" d="M294.94,83.47H214.52A1.5,1.5,0,0,1,213,82V1.55a1.5,1.5,0,0,1,1.5-1.5h80.42a1.5,1.5,0,0,1,1.5,1.5V82A1.5,1.5,0,0,1,294.94,83.47Zm-78.92-3h77.42V3.05H216Z"/><path class="cls-1" d="M401.93,83.42h-6a1.5,1.5,0,0,1,0-3h4.5v-4.5a1.5,1.5,0,0,1,3,0v6A1.5,1.5,0,0,1,401.93,83.42Z"/><path class="cls-1" d="M386.92,83.42h-10.8a1.5,1.5,0,0,1,0-3h10.8a1.5,1.5,0,0,1,0,3Zm-19.8,0H356.31a1.5,1.5,0,0,1,0-3h10.81a1.5,1.5,0,0,1,0,3Zm-19.81,0h-10.8a1.5,1.5,0,0,1,0-3h10.8a1.5,1.5,0,0,1,0,3Z"/><path class="cls-1" d="M327.5,83.42h-6a1.5,1.5,0,0,1-1.5-1.5v-6a1.5,1.5,0,0,1,3,0v4.5h4.5a1.5,1.5,0,0,1,0,3Z"/><path class="cls-1" d="M321.5,68.42a1.5,1.5,0,0,1-1.5-1.5V56.12a1.5,1.5,0,0,1,3,0v10.8A1.5,1.5,0,0,1,321.5,68.42Zm0-19.81a1.5,1.5,0,0,1-1.5-1.5V36.31a1.5,1.5,0,0,1,3,0v10.8A1.5,1.5,0,0,1,321.5,48.61Zm0-19.8a1.5,1.5,0,0,1-1.5-1.5V16.5a1.5,1.5,0,0,1,3,0V27.31A1.5,1.5,0,0,1,321.5,28.81Z"/><path class="cls-1" d="M321.5,9A1.5,1.5,0,0,1,320,7.5v-6A1.5,1.5,0,0,1,321.5,0h6a1.5,1.5,0,0,1,0,3H323V7.5A1.5,1.5,0,0,1,321.5,9Z"/><path class="cls-1" d="M386.92,3h-10.8a1.5,1.5,0,0,1,0-3h10.8a1.5,1.5,0,0,1,0,3Zm-19.8,0H356.31a1.5,1.5,0,0,1,0-3h10.81a1.5,1.5,0,0,1,0,3ZM347.31,3h-10.8a1.5,1.5,0,0,1,0-3h10.8a1.5,1.5,0,0,1,0,3Z"/><path class="cls-1" d="M401.93,9a1.5,1.5,0,0,1-1.5-1.5V3h-4.5a1.5,1.5,0,0,1,0-3h6a1.5,1.5,0,0,1,1.5,1.5v6A1.5,1.5,0,0,1,401.93,9Z"/><path class="cls-1" d="M401.93,68.42a1.5,1.5,0,0,1-1.5-1.5V56.12a1.5,1.5,0,0,1,3,0v10.8A1.5,1.5,0,0,1,401.93,68.42Zm0-19.81a1.5,1.5,0,0,1-1.5-1.5V36.31a1.5,1.5,0,0,1,3,0v10.8A1.5,1.5,0,0,1,401.93,48.61Zm0-19.8a1.5,1.5,0,0,1-1.5-1.5V16.5a1.5,1.5,0,0,1,3,0V27.31A1.5,1.5,0,0,1,401.93,28.81Z"/><path class="cls-2" d="M66.55,40.89l-22.83-32a1.51,1.51,0,0,0-1.2-.63,1.47,1.47,0,0,0-1.22.59l-24.4,32a1.5,1.5,0,0,0,0,1.82l24.4,32a1.53,1.53,0,0,0,1.2.59h0a1.51,1.51,0,0,0,1.2-.63l22.83-32A1.5,1.5,0,0,0,66.55,40.89ZM45.39,16.43l2.17,3H37l2.31-3Zm3.49,4.89,2.16,3H33.28l2.31-3Zm3.49,4.88,2.16,3h-25l2.31-3Zm3.49,4.88,2.16,3H25.82l2.31-3ZM59.35,36l2.16,3H22.09l2.32-3ZM42.46,12.32l1.61,2.26H40.73ZM40,68l-2.31-3h9.27l-2.16,3Zm-3.73-4.88-2.31-3H50.43l-2.16,3Zm-3.73-4.88-2.31-3H53.92l-2.17,3ZM28.79,53.3l-2.31-3H57.41l-2.17,3Zm-3.73-4.88-2.31-3H60.89l-2.16,3ZM42.46,71.2l-1.07-1.39h2.06ZM62.22,43.54H21.34L20,41.76l.93-1.21-.17.3h42.1l.65.91Z"/><path class="cls-2" d="M168.93,39.89,150.56,14.17a1.48,1.48,0,0,0-1.19-.62,1.4,1.4,0,0,0-1.22.59L128.52,39.85a1.5,1.5,0,0,0,0,1.82l19.63,25.72a1.51,1.51,0,0,0,1.19.59h0a1.49,1.49,0,0,0,1.19-.63l18.37-25.72A1.47,1.47,0,0,0,168.93,39.89ZM149.17,63.77l-2.57-3.36h5.23l-2.4,3.36ZM132.48,39.61h32.57l.82,1.15-1.32,1.85H133l-1.41-1.85Zm13.59-17.8,2.57-3.37h1.29l2.4,3.37Zm7.64,1.93,2.4,3.36H142l2.57-3.36ZM157.49,29l2.4,3.36H138L140.56,29Zm3.78,5.29,2.4,3.37H134l2.57-3.37h24.75Zm-5.66,20.8-2.4,3.36h-8.08l-2.57-3.36Zm-14.52-1.93-2.57-3.36H159.4L157,53.19Zm-4-5.29-2.57-3.37h28.7l-2.41,3.37Z"/><path class="cls-2" d="M268,40.89l-11.6-16.24a1.51,1.51,0,0,0-1.2-.63,1.45,1.45,0,0,0-1.22.59L241.54,40.85a1.5,1.5,0,0,0,0,1.82l12.39,16.24a1.5,1.5,0,0,0,1.2.59h0a1.5,1.5,0,0,0,1.2-.62L268,42.63A1.5,1.5,0,0,0,268,40.89ZM247,38.62l2.25-2.94h11.28l2.1,2.94Zm10.12-7.72,2.1,2.94h-8.57l2.24-2.94Zm-1.31-1.83h-1.51l.78-1Zm-2.91,23.55-2.25-2.94h8.57l-2.1,2.94Zm-3.65-4.78L247,44.9h15.63l-2.1,2.94Zm5.83,7.64-.78-1h1.51ZM264,43.06H245.61l-1-1.3,1-1.3H264l.93,1.3Z"/></g></g></svg>