<svg xmlns="http://www.w3.org/2000/svg" viewBox="0 0 83.42 83.42"><defs><style>.cls-1{fill:#fff;}.cls-2{fill:#f5d492;}</style></defs><title>5_2</title><g id="Layer_2" data-name="Layer 2"><g id="Layer_2-2" data-name="Layer 2"><path class="cls-1" d="M81.92,83.42H1.5A1.5,1.5,0,0,1,0,81.92V1.5A1.5,1.5,0,0,1,1.5,0H81.92a1.5,1.5,0,0,1,1.5,1.5V81.92A1.5,1.5,0,0,1,81.92,83.42ZM3,80.42H80.42V3H3Z"/><path class="cls-2" d="M66.55,40.84l-22.83-32a1.51,1.51,0,0,0-1.2-.63,1.48,1.48,0,0,0-1.22.59l-24.4,32a1.5,1.5,0,0,0,0,1.82l24.4,32a1.53,1.53,0,0,0,1.2.59h0a1.51,1.51,0,0,0,1.2-.63l22.83-32A1.5,1.5,0,0,0,66.55,40.84ZM45.39,16.38l2.17,3H37l2.31-3Zm3.49,4.89,2.16,3H33.28l2.31-3Zm3.49,4.88,2.16,3h-25l2.31-3ZM55.86,31l2.16,3H25.82l2.31-3Zm3.49,4.89,2.16,3H22.09l2.32-3ZM42.46,12.27l1.61,2.26H40.73ZM40,67.9l-2.31-3h9.27l-2.16,3ZM36.25,63l-2.31-3H50.43l-2.16,3Zm-3.73-4.88-2.31-3H53.92l-2.17,3Zm-3.73-4.89-2.31-3H57.4l-2.16,3Zm-3.73-4.88-2.31-3H60.89l-2.16,3Zm17.4,22.78-1.07-1.39h2.06ZM62.22,43.49H21.34L20,41.71l.93-1.21-.17.3h42.1l.65.91Z"/></g></g></svg>