<svg xmlns="http://www.w3.org/2000/svg" viewBox="0 0 83.42 83.42"><defs><style>.cls-1{fill:#fff;}.cls-2{fill:#f5d492;}</style></defs><title>5_3</title><g id="Layer_2" data-name="Layer 2"><g id="Layer_2-2" data-name="Layer 2"><path class="cls-1" d="M81.92,83.42H1.5A1.5,1.5,0,0,1,0,81.92V1.5A1.5,1.5,0,0,1,1.5,0H81.92a1.5,1.5,0,0,1,1.5,1.5V81.92A1.5,1.5,0,0,1,81.92,83.42ZM3,80.42H80.42V3H3Z"/><path class="cls-2" d="M61,22.48A1.5,1.5,0,0,0,59.7,22l-32.07,4.3a1.51,1.51,0,0,0-1.29,1.29L22,59.7a1.51,1.51,0,0,0,1.49,1.7l.24,0L55,56.18A1.49,1.49,0,0,0,56.18,55l5.2-31.17A1.56,1.56,0,0,0,61,22.48ZM25.32,57.86l.56-4.2,3.7,3.71-4.08.68Zm2.33-17.39L35.13,48l7.28,7.28-4.08.68L27.09,44.66ZM28,38.06l.56-4.19,20.3,20.29-4.08.68ZM26.2,51.26l.56-4.19L36,56.3,31.92,57l-2.81-2.81ZM53.4,53.4l-2.24.37L28.86,31.46l.31-2.29L30.6,29l23,23Zm3.83-23-2.18-2.17L52.8,26,57,25.43l.45.45.47.46ZM33,28.65l4.2-.56L46.06,37l8.64,8.63L54,49.67ZM55.77,39.17l-.68,4.08L39.6,27.77l4.2-.57ZM46.2,26.88l4.19-.56,6.45,6.44-.68,4.08Z"/></g></g></svg>