<svg xmlns="http://www.w3.org/2000/svg" viewBox="0 0 83.42 83.42"><defs><style>.cls-1{fill:#fff;}.cls-2{fill:#f5d492;}</style></defs><title>5_4</title><g id="Layer_2" data-name="Layer 2"><g id="Layer_2-2" data-name="Layer 2"><path class="cls-1" d="M81.92,83.42H1.5A1.5,1.5,0,0,1,0,81.92V1.5A1.5,1.5,0,0,1,1.5,0H81.92a1.5,1.5,0,0,1,1.5,1.5V81.92A1.5,1.5,0,0,1,81.92,83.42ZM3,80.42H80.42V3H3Z"/><path class="cls-2" d="M50.69,40.84l-7.5-10.5a1.5,1.5,0,0,0-2.41,0l-8,10.5a1.5,1.5,0,0,0,0,1.82l8,10.5a1.49,1.49,0,0,0,1.19.59h0a1.51,1.51,0,0,0,1.2-.63l7.5-10.5A1.5,1.5,0,0,0,50.69,40.84Zm-9.62,7.72L39.88,47h4l-1.1,1.55Zm-2.36-3.09-1.18-1.55h8.52l-1.11,1.55Zm-2.36-3.09-.51-.67.51-.66h10.8l.48.66-.48.67Zm6.39-7.51,1.1,1.55h-4l1.19-1.55ZM45,38l1.1,1.55H37.53L38.71,38Z"/></g></g></svg>