<svg xmlns="http://www.w3.org/2000/svg" viewBox="0 0 83.42 83.42"><defs><style>.cls-1{fill:#fff;}.cls-2{fill:#f5d492;}</style></defs><title>5_5</title><g id="Layer_2" data-name="Layer 2"><g id="Layer_2-2" data-name="Layer 2"><path class="cls-1" d="M81.92,83.42H1.5A1.5,1.5,0,0,1,0,81.92V1.5A1.5,1.5,0,0,1,1.5,0H81.92a1.5,1.5,0,0,1,1.5,1.5V81.92A1.5,1.5,0,0,1,81.92,83.42ZM3,80.42H80.42V3H3Z"/><path class="cls-2" d="M51.71,30.21h-20a1.5,1.5,0,0,0-1.5,1.5v20a1.5,1.5,0,0,0,1.5,1.5h20a1.5,1.5,0,0,0,1.5-1.5v-20A1.5,1.5,0,0,0,51.71,30.21Zm-5.56,20,4.06-4.06v3.67l-.39.39Zm-.55-5.62L50.21,40v3.67l-6.56,6.56H40ZM33.21,33.21H36L33.21,36Zm0,5.27,5.28-5.27h3.67l-8.95,8.95Zm0,6.17L44.65,33.21h3.67L33.21,48.32Zm.61,5.56L50.21,33.82v3.67l-.84.84L37.49,50.21Z"/></g></g></svg>