<svg xmlns="http://www.w3.org/2000/svg" viewBox="0 0 83.42 83.42"><defs><style>.cls-1{fill:#fff;}.cls-2{fill:#f5d492;}</style></defs><title>5_6</title><g id="Layer_2" data-name="Layer 2"><g id="Layer_2-2" data-name="Layer 2"><path class="cls-1" d="M81.92,83.42H1.5A1.5,1.5,0,0,1,0,81.92V1.5A1.5,1.5,0,0,1,1.5,0H81.92a1.5,1.5,0,0,1,1.5,1.5V81.92A1.5,1.5,0,0,1,81.92,83.42ZM3,80.42H80.42V3H3Z"/><path class="cls-2" d="M58.21,23.72h-33a1.5,1.5,0,0,0-1.5,1.5v33a1.5,1.5,0,0,0,1.5,1.5h33a1.5,1.5,0,0,0,1.5-1.5v-33A1.5,1.5,0,0,0,58.21,23.72Zm-24,3h4.25L26.71,38.48V34.23Zm6.87,0h4.24L26.71,45.35V41.1Zm6.86,0h4.25L26.71,52.21V48Zm-16.35,0-4.9,4.89V26.72Zm-4.9,28.11L54.83,26.72h1.88V28.6L28.6,56.72H26.71ZM49.2,56.72H45L56.71,45V49.2Zm-6.87,0H38.08L56.71,38.08v4.25Zm-6.87,0H31.21l25.5-25.5v4.24Zm16.35,0,4.9-4.9v4.9Z"/></g></g></svg>