<svg xmlns="http://www.w3.org/2000/svg" viewBox="0 0 83.42 83.42"><defs><style>.cls-1{fill:#fff;}.cls-2{fill:#f5d492;}</style></defs><title>6_6</title><g id="Layer_2" data-name="Layer 2"><g id="Layer_2-2" data-name="Layer 2"><path class="cls-1" d="M81.92,83.42H1.5A1.5,1.5,0,0,1,0,81.92V1.5A1.5,1.5,0,0,1,1.5,0H81.92a1.5,1.5,0,0,1,1.5,1.5V81.92A1.5,1.5,0,0,1,81.92,83.42ZM3,80.42H80.42V3H3Z"/><path class="cls-2" d="M69.42,28A1.5,1.5,0,0,0,68,27.05H15.39a1.5,1.5,0,0,0-1.06,2.56L40.65,55.93a1.47,1.47,0,0,0,1.06.44,1.45,1.45,0,0,0,1.06-.44L69.1,29.61A1.49,1.49,0,0,0,69.42,28ZM41.71,52.75,19,30.05H64.42Z"/></g></g></svg>