<svg xmlns="http://www.w3.org/2000/svg" viewBox="0 0 83.42 83.42"><defs><style>.cls-1{fill:#fff;}.cls-2{fill:#f5d492;}</style></defs><title>6_4</title><g id="Layer_2" data-name="Layer 2"><g id="Layer_2-2" data-name="Layer 2"><path class="cls-1" d="M81.92,83.42H1.5A1.5,1.5,0,0,1,0,81.92V1.5A1.5,1.5,0,0,1,1.5,0H81.92a1.5,1.5,0,0,1,1.5,1.5V81.92A1.5,1.5,0,0,1,81.92,83.42ZM3,80.42H80.42V3H3Z"/><path class="cls-2" d="M69.1,53.81,42.77,27.49a1.49,1.49,0,0,0-1.06-.44,1.51,1.51,0,0,0-1.06.44L14.33,53.81A1.51,1.51,0,0,0,14,55.45a1.5,1.5,0,0,0,1.39.92H68a1.49,1.49,0,0,0,1.38-.92A1.51,1.51,0,0,0,69.1,53.81ZM19,53.37l22.7-22.7L44,33l-.29-.29L23.06,53.37Zm11.37,0,17-17-.58-.58L29.22,53.37h-5l20.1-20.09,5.81,5.81L35.84,53.37Zm6.62,0,13.71-13.7,3,3-.29-.29-11,11Zm13.25,0,7.08-7.08-.58-.58-7.66,7.66H43.62L54,43l2.73,2.73L60.06,49l-4.35,4.35Zm6.62,0,3.77-3.77-.38-.39,4.16,4.16Z"/></g></g></svg>