<svg xmlns="http://www.w3.org/2000/svg" viewBox="0 0 83.42 83.92"><defs><style>.cls-1{fill:#fff;}.cls-2{fill:#93dbd4;}</style></defs><title>2_3</title><g id="Layer_2" data-name="Layer 2"><g id="Layer_2-2" data-name="Layer 2"><path class="cls-1" d="M81.92,83.42H1.5A1.5,1.5,0,0,1,0,81.92V1.5A1.5,1.5,0,0,1,1.5,0H81.92a1.5,1.5,0,0,1,1.5,1.5V81.92A1.5,1.5,0,0,1,81.92,83.42ZM3,80.42H80.42V3H3Z"/><path class="cls-1" d="M81.92,83.92H1.5A1.5,1.5,0,0,1,0,82.42V2A1.5,1.5,0,0,1,1.5.5H81.92A1.5,1.5,0,0,1,83.42,2V82.42A1.5,1.5,0,0,1,81.92,83.92ZM3,80.92H80.42V3.5H3Z"/><path class="cls-2" d="M50.37,40.44h-6v-6a1.5,1.5,0,0,0-3,0v6h-6a1.5,1.5,0,0,0,0,3h6v6a1.5,1.5,0,0,0,3,0v-6h6a1.5,1.5,0,1,0,0-3Z"/></g></g></svg>