<svg xmlns="http://www.w3.org/2000/svg" viewBox="0 0 83.42 83.42"><defs><style>.cls-1{fill:#fff;}.cls-2{fill:#f5d492;}</style></defs><title>3_6</title><g id="Layer_2" data-name="Layer 2"><g id="Layer_2-2" data-name="Layer 2"><path class="cls-1" d="M83.42,1.5V81.92a1.5,1.5,0,0,1-1.5,1.5H1.5A1.5,1.5,0,0,1,0,81.92V1.5A1.5,1.5,0,0,1,1.5,0H81.92A1.5,1.5,0,0,1,83.42,1.5Zm-3,78.92V3H3V80.42Z"/><path class="cls-2" d="M35.71,24.66h12a1.5,1.5,0,0,1,1.5,1.5v12a1.5,1.5,0,0,1-1.5,1.5h-12a1.5,1.5,0,0,1-1.5-1.5v-12A1.5,1.5,0,0,1,35.71,24.66Zm10.5,3h-9v9h9Z"/><path class="cls-2" d="M35.71,41.21h12a1.5,1.5,0,0,1,1.5,1.5v12a1.5,1.5,0,0,1-1.5,1.5h-12a1.5,1.5,0,0,1-1.5-1.5v-12A1.5,1.5,0,0,1,35.71,41.21Zm10.5,3h-9v9h9Z"/><path class="cls-2" d="M35.71,57.76h12a1.5,1.5,0,0,1,1.5,1.5v12a1.5,1.5,0,0,1-1.5,1.5h-12a1.5,1.5,0,0,1-1.5-1.5v-12A1.5,1.5,0,0,1,35.71,57.76Zm10.5,3h-9v9h9Z"/></g></g></svg>