<svg xmlns="http://www.w3.org/2000/svg" viewBox="0 0 403.43 83.47"><defs><style>.cls-1{fill:#fff;}.cls-2{fill:#f5d492;}.cls-3{fill:#93dbd4;}</style></defs><title>4</title><g id="Layer_2" data-name="Layer 2"><g id="Layer_2-2" data-name="Layer 2"><path class="cls-1" d="M352.92,35.75A6.31,6.31,0,0,1,354,32.37a8.18,8.18,0,0,1,3.13-2.84,9.83,9.83,0,0,1,4.79-1.12,10.2,10.2,0,0,1,4.5.94,7.25,7.25,0,0,1,3,2.55,6.27,6.27,0,0,1,1.06,3.52,5.48,5.48,0,0,1-.6,2.62A8,8,0,0,1,368.45,40c-.55.55-1.55,1.46-3,2.75a10.78,10.78,0,0,0-1,1,4.19,4.19,0,0,0-.54.76,4.37,4.37,0,0,0-.27.68c-.06.23-.16.63-.29,1.21a2,2,0,0,1-2.09,1.82,2.18,2.18,0,0,1-1.54-.59,2.38,2.38,0,0,1-.62-1.78,6.66,6.66,0,0,1,.45-2.56,6.58,6.58,0,0,1,1.22-1.9,27.24,27.24,0,0,1,2-1.94c.75-.65,1.29-1.15,1.62-1.48a5.1,5.1,0,0,0,.85-1.12,2.81,2.81,0,0,0,.34-1.34,3.11,3.11,0,0,0-1.05-2.37,3.82,3.82,0,0,0-2.7-1,3.73,3.73,0,0,0-2.84,1A7.77,7.77,0,0,0,357.53,36c-.4,1.33-1.15,2-2.27,2a2.24,2.24,0,0,1-1.66-.69A2.16,2.16,0,0,1,352.92,35.75ZM361.5,55a2.73,2.73,0,0,1-1.87-.7,2.44,2.44,0,0,1-.8-1.94,2.5,2.5,0,0,1,.77-1.86,2.6,2.6,0,0,1,1.9-.76,2.58,2.58,0,0,1,2.62,2.62,2.46,2.46,0,0,1-.79,1.94A2.72,2.72,0,0,1,361.5,55Z"/><path class="cls-1" d="M81.92,83.47H1.5A1.5,1.5,0,0,1,0,82V1.55A1.5,1.5,0,0,1,1.5.05H81.92a1.5,1.5,0,0,1,1.5,1.5V82A1.5,1.5,0,0,1,81.92,83.47ZM3,80.47H80.42V3.05H3Z"/><path class="cls-1" d="M188.43,83.47H108a1.5,1.5,0,0,1-1.5-1.5V1.55A1.5,1.5,0,0,1,108,.05h80.42a1.5,1.5,0,0,1,1.5,1.5V82A1.5,1.5,0,0,1,188.43,83.47Zm-78.92-3h77.42V3.05H109.51Z"/><path class="cls-1" d="M294.94,83.47H214.52A1.5,1.5,0,0,1,213,82V1.55a1.5,1.5,0,0,1,1.5-1.5h80.42a1.5,1.5,0,0,1,1.5,1.5V82A1.5,1.5,0,0,1,294.94,83.47Zm-78.92-3h77.42V3.05H216Z"/><path class="cls-1" d="M401.93,83.42h-6a1.5,1.5,0,0,1,0-3h4.5v-4.5a1.5,1.5,0,0,1,3,0v6A1.5,1.5,0,0,1,401.93,83.42Z"/><path class="cls-1" d="M386.92,83.42h-10.8a1.5,1.5,0,0,1,0-3h10.8a1.5,1.5,0,0,1,0,3Zm-19.8,0H356.31a1.5,1.5,0,0,1,0-3h10.81a1.5,1.5,0,0,1,0,3Zm-19.81,0h-10.8a1.5,1.5,0,0,1,0-3h10.8a1.5,1.5,0,0,1,0,3Z"/><path class="cls-1" d="M327.5,83.42h-6a1.5,1.5,0,0,1-1.5-1.5v-6a1.5,1.5,0,0,1,3,0v4.5h4.5a1.5,1.5,0,0,1,0,3Z"/><path class="cls-1" d="M321.5,68.42a1.5,1.5,0,0,1-1.5-1.5V56.12a1.5,1.5,0,0,1,3,0v10.8A1.5,1.5,0,0,1,321.5,68.42Zm0-19.81a1.5,1.5,0,0,1-1.5-1.5V36.31a1.5,1.5,0,0,1,3,0v10.8A1.5,1.5,0,0,1,321.5,48.61Zm0-19.8a1.5,1.5,0,0,1-1.5-1.5V16.5a1.5,1.5,0,0,1,3,0V27.31A1.5,1.5,0,0,1,321.5,28.81Z"/><path class="cls-1" d="M321.5,9A1.5,1.5,0,0,1,320,7.5v-6A1.5,1.5,0,0,1,321.5,0h6a1.5,1.5,0,0,1,0,3H323V7.5A1.5,1.5,0,0,1,321.5,9Z"/><path class="cls-1" d="M386.92,3h-10.8a1.5,1.5,0,0,1,0-3h10.8a1.5,1.5,0,0,1,0,3Zm-19.8,0H356.31a1.5,1.5,0,0,1,0-3h10.81a1.5,1.5,0,0,1,0,3ZM347.31,3h-10.8a1.5,1.5,0,0,1,0-3h10.8a1.5,1.5,0,0,1,0,3Z"/><path class="cls-1" d="M401.93,9a1.5,1.5,0,0,1-1.5-1.5V3h-4.5a1.5,1.5,0,0,1,0-3h6a1.5,1.5,0,0,1,1.5,1.5v6A1.5,1.5,0,0,1,401.93,9Z"/><path class="cls-1" d="M401.93,68.42a1.5,1.5,0,0,1-1.5-1.5V56.12a1.5,1.5,0,0,1,3,0v10.8A1.5,1.5,0,0,1,401.93,68.42Zm0-19.81a1.5,1.5,0,0,1-1.5-1.5V36.31a1.5,1.5,0,0,1,3,0v10.8A1.5,1.5,0,0,1,401.93,48.61Zm0-19.8a1.5,1.5,0,0,1-1.5-1.5V16.5a1.5,1.5,0,0,1,3,0V27.31A1.5,1.5,0,0,1,401.93,28.81Z"/><path class="cls-2" d="M30.63,61.75a2.86,2.86,0,0,1-1.72-.57,2.92,2.92,0,0,1-1.17-2.87L29.6,47.46l-7.86-7.62a2.94,2.94,0,0,1,1.62-5l10.9-1.58,4.82-9.84a2.94,2.94,0,0,1,5.26,0l4.88,9.87,10.84,1.55a2.94,2.94,0,0,1,1.63,5L53.8,47.52l1.88,10.79a2.93,2.93,0,0,1-4.25,3.1L41.71,56.3,32,61.41A3,3,0,0,1,30.63,61.75Zm11.08-8.46a2.9,2.9,0,0,1,1.37.34l9.62,5.06L50.87,48a2.93,2.93,0,0,1,.84-2.6l7.79-7.59L48.74,36.22a2.91,2.91,0,0,1-2.21-1.61l-4.82-9.75L36.9,34.61a2.93,2.93,0,0,1-2.21,1.61L23.93,37.78l7.78,7.59a2.94,2.94,0,0,1,.85,2.6L30.72,58.69l9.63-5.06h0A2.83,2.83,0,0,1,41.71,53.29Z"/><path class="cls-3" d="M243.65,61.75a2.86,2.86,0,0,1-1.72-.57,2.9,2.9,0,0,1-1.17-2.87l1.86-10.85-7.87-7.62a2.94,2.94,0,0,1,1.63-5l10.89-1.58,4.83-9.84a2.94,2.94,0,0,1,5.26,0l4.87,9.87,10.85,1.55a2.93,2.93,0,0,1,1.62,5l-7.88,7.68,1.88,10.79a2.94,2.94,0,0,1-4.26,3.1l-9.71-5.11L245,61.41A3.08,3.08,0,0,1,243.65,61.75Zm11.08-8.46a2.83,2.83,0,0,1,1.36.34l9.63,5.06L263.88,48a2.94,2.94,0,0,1,.85-2.6l7.78-7.59-10.76-1.56a3,3,0,0,1-2.21-1.61l-4.81-9.75-4.81,9.75a3,3,0,0,1-2.21,1.61l-10.77,1.56,7.79,7.59a3,3,0,0,1,.85,2.6l-1.84,10.72,9.62-5.06h0A2.9,2.9,0,0,1,254.73,53.29Z"/><path class="cls-2" d="M140.32,62.26a21,21,0,0,1-2.36-.15A2.61,2.61,0,0,1,135.68,60a2.69,2.69,0,0,1-.06-.54,2.6,2.6,0,0,1,1.32-2.27,17.89,17.89,0,0,0,0-30.94,2.63,2.63,0,0,1-1.25-2.81A2.66,2.66,0,0,1,138,21.4a21.92,21.92,0,0,1,2.37-.14,20.5,20.5,0,0,1,0,41Zm-.93-3,.93,0a17.5,17.5,0,0,0,0-35l-.92,0a20.88,20.88,0,0,1,0,34.94Zm-1.11-.1h0Zm.15-35.44h0Z"/></g></g></svg>