<svg xmlns="http://www.w3.org/2000/svg" viewBox="0 0 83.42 83.42"><defs><style>.cls-1{fill:#fff;}.cls-2{fill:#93dbd4;}</style></defs><title>4_5</title><g id="Layer_2" data-name="Layer 2"><g id="Layer_2-2" data-name="Layer 2"><path class="cls-1" d="M81.92,83.42H1.5A1.5,1.5,0,0,1,0,81.92V1.5A1.5,1.5,0,0,1,1.5,0H81.92a1.5,1.5,0,0,1,1.5,1.5V81.92A1.5,1.5,0,0,1,81.92,83.42ZM3,80.42H80.42V3H3Z"/><path class="cls-2" d="M30.63,61.7a2.89,2.89,0,0,1-1.72-.57,2.92,2.92,0,0,1-1.17-2.87L29.6,47.41l-7.86-7.62a2.94,2.94,0,0,1,1.62-5l10.9-1.58,4.82-9.84a2.94,2.94,0,0,1,5.26,0l4.88,9.87,10.84,1.55a2.94,2.94,0,0,1,1.63,5L53.8,47.47l1.88,10.79a2.93,2.93,0,0,1-4.25,3.1l-9.72-5.11L32,61.36A3,3,0,0,1,30.63,61.7Zm11.08-8.46a2.9,2.9,0,0,1,1.37.34l9.62,5.06L50.87,47.92a2.93,2.93,0,0,1,.84-2.6l7.79-7.59L48.74,36.17a2.91,2.91,0,0,1-2.21-1.61l-4.82-9.75L36.9,34.56a2.93,2.93,0,0,1-2.21,1.61L23.93,37.73l7.78,7.59a2.94,2.94,0,0,1,.85,2.6L30.72,58.64l9.63-5.06A2.83,2.83,0,0,1,41.71,53.24ZM41,54.91h0Z"/></g></g></svg>