<svg xmlns="http://www.w3.org/2000/svg" viewBox="0 0 83.42 83.42"><defs><style>.cls-1{fill:#fff;}.cls-2{fill:#f5d492;}</style></defs><title>5_1</title><g id="Layer_2" data-name="Layer 2"><g id="Layer_2-2" data-name="Layer 2"><path class="cls-1" d="M81.92,83.42H1.5A1.5,1.5,0,0,1,0,81.92V1.5A1.5,1.5,0,0,1,1.5,0H81.92a1.5,1.5,0,0,1,1.5,1.5V81.92A1.5,1.5,0,0,1,81.92,83.42ZM3,80.42H80.42V3H3Z"/><path class="cls-2" d="M74.59,41.3l-32-24.4a1.5,1.5,0,0,0-1.82,0l-32,24.4a1.51,1.51,0,0,0,0,2.42l32,22.83a1.48,1.48,0,0,0,.87.28,1.46,1.46,0,0,0,.87-.28l32-22.83a1.51,1.51,0,0,0,0-2.42ZM44.48,22.09l3,2.32V59.35l-3,2.16Zm4.88,3.73,3,2.31V55.86l-3,2.16Zm4.89,3.73,3,2.31V52.37l-3,2.16Zm4.88,3.73,3,2.31V48.88l-3,2.16ZM64,37l3,2.31v6.07l-3,2.17ZM15.52,40l3-2.31v9.27l-3-2.16Zm4.88-3.73,3-2.31V50.43l-3-2.17Zm4.89-3.73,3-2.31V53.92l-3-2.17Zm4.88-3.73,3-2.31V57.4l-3-2.16Zm4.88-3.73,3-2.31V60.89l-3-2.16ZM13.66,41.39v2.06l-1.39-1Zm28.05,22.1-1.77-1.27V21.34L41.71,20l1.22.93-.31-.17v42.1ZM68.9,44.07V40.73l2.25,1.73Z"/></g></g></svg>