<svg xmlns="http://www.w3.org/2000/svg" viewBox="0 0 83.42 83.42"><defs><style>.cls-1{fill:#fff;}.cls-2{fill:#f5d492;}</style></defs><title>6_3</title><g id="Layer_2" data-name="Layer 2"><g id="Layer_2-2" data-name="Layer 2"><path class="cls-1" d="M81.92,83.42H1.5A1.5,1.5,0,0,1,0,81.92V1.5A1.5,1.5,0,0,1,1.5,0H81.92a1.5,1.5,0,0,1,1.5,1.5V81.92A1.5,1.5,0,0,1,81.92,83.42ZM3,80.42H80.42V3H3Z"/><path class="cls-2" d="M69.1,53.81,42.77,27.49a1.49,1.49,0,0,0-2.12,0L14.33,53.81A1.51,1.51,0,0,0,14,55.45a1.5,1.5,0,0,0,1.39.92H68a1.49,1.49,0,0,0,1.38-.92A1.51,1.51,0,0,0,69.1,53.81ZM19,53.37l22.7-22.7,22.71,22.7Z"/></g></g></svg>