<svg xmlns="http://www.w3.org/2000/svg" viewBox="0 0 83.42 83.42"><defs><style>.cls-1{fill:#fff;}.cls-2{fill:#93dbd4;}</style></defs><title>6_5</title><g id="Layer_2" data-name="Layer 2"><g id="Layer_2-2" data-name="Layer 2"><path class="cls-1" d="M81.92,83.42H1.5A1.5,1.5,0,0,1,0,81.92V1.5A1.5,1.5,0,0,1,1.5,0H81.92a1.5,1.5,0,0,1,1.5,1.5V81.92A1.5,1.5,0,0,1,81.92,83.42ZM3,80.42H80.42V3H3Z"/><path class="cls-2" d="M69.42,28A1.5,1.5,0,0,0,68,27.05H15.39a1.5,1.5,0,0,0-1.06,2.56L40.65,55.93a1.47,1.47,0,0,0,1.06.44,1.45,1.45,0,0,0,1.06-.44L69.1,29.61A1.49,1.49,0,0,0,69.42,28ZM26.56,30.05l-3.78,3.77.39.39L19,30.05Zm-3.2,4.35,4.36-4.35h5.46l-7.09,7.08.58.58,7.67-7.66H39.8L29.4,40.45l-2.73-2.74Zm6.33,6.34L30,41l11-11h5.46L32.72,43.76ZM47.58,30.05H53l-17,17,.58.58L54.2,30.05h5L39.1,50.15l-5.8-5.81Zm-5.87,22.7-2.32-2.31.3.29L60.36,30.05h4.06Z"/></g></g></svg>